<mxfile host="app.diagrams.net" agent="Mozilla/5.0 (Macintosh; Intel Mac OS X 10_15_7) AppleWebKit/605.1.15 (KHTML, like Gecko) Version/17.6 Safari/605.1.15" version="24.7.16">
  <diagram name="Page-1" id="yoEah5VIRIMWS_EXMsRy">
    <mxGraphModel dx="1032" dy="895" grid="1" gridSize="10" guides="1" tooltips="1" connect="1" arrows="1" fold="1" page="1" pageScale="1" pageWidth="827" pageHeight="1169" math="0" shadow="0">
      <root>
        <mxCell id="0" />
        <mxCell id="1" parent="0" />
        <mxCell id="LVbmIjUPnZdBbODbFYWp-1" value="" style="rounded=0;orthogonalLoop=1;jettySize=auto;html=1;entryX=0.5;entryY=0;entryDx=0;entryDy=0;exitX=0.5;exitY=0.5;exitDx=0;exitDy=0;exitPerimeter=0;" edge="1" parent="1" source="LVbmIjUPnZdBbODbFYWp-9" target="LVbmIjUPnZdBbODbFYWp-27">
          <mxGeometry relative="1" as="geometry" />
        </mxCell>
        <mxCell id="LVbmIjUPnZdBbODbFYWp-4" style="rounded=0;orthogonalLoop=1;jettySize=auto;html=1;exitX=0.5;exitY=0.5;exitDx=0;exitDy=0;exitPerimeter=0;entryX=0.5;entryY=0;entryDx=0;entryDy=0;" edge="1" parent="1" source="LVbmIjUPnZdBbODbFYWp-9" target="LVbmIjUPnZdBbODbFYWp-23">
          <mxGeometry relative="1" as="geometry" />
        </mxCell>
        <mxCell id="LVbmIjUPnZdBbODbFYWp-5" style="rounded=0;orthogonalLoop=1;jettySize=auto;html=1;exitX=0.5;exitY=0.5;exitDx=0;exitDy=0;exitPerimeter=0;" edge="1" parent="1" source="LVbmIjUPnZdBbODbFYWp-9" target="LVbmIjUPnZdBbODbFYWp-36">
          <mxGeometry relative="1" as="geometry" />
        </mxCell>
        <mxCell id="LVbmIjUPnZdBbODbFYWp-6" style="rounded=0;orthogonalLoop=1;jettySize=auto;html=1;exitX=0.5;exitY=0.5;exitDx=0;exitDy=0;exitPerimeter=0;entryX=0.5;entryY=0;entryDx=0;entryDy=0;" edge="1" parent="1" source="LVbmIjUPnZdBbODbFYWp-9" target="LVbmIjUPnZdBbODbFYWp-26">
          <mxGeometry relative="1" as="geometry" />
        </mxCell>
        <mxCell id="LVbmIjUPnZdBbODbFYWp-9" value="Khách hàng" style="shape=umlActor;verticalLabelPosition=bottom;verticalAlign=top;html=1;outlineConnect=0;" vertex="1" parent="1">
          <mxGeometry x="455" y="30" width="30" height="60" as="geometry" />
        </mxCell>
        <mxCell id="LVbmIjUPnZdBbODbFYWp-10" style="rounded=0;orthogonalLoop=1;jettySize=auto;html=1;exitX=0.5;exitY=0.5;exitDx=0;exitDy=0;exitPerimeter=0;entryX=1;entryY=1;entryDx=0;entryDy=0;" edge="1" parent="1" source="LVbmIjUPnZdBbODbFYWp-15" target="LVbmIjUPnZdBbODbFYWp-39">
          <mxGeometry relative="1" as="geometry" />
        </mxCell>
        <mxCell id="LVbmIjUPnZdBbODbFYWp-11" style="rounded=0;orthogonalLoop=1;jettySize=auto;html=1;exitX=0.5;exitY=0.5;exitDx=0;exitDy=0;exitPerimeter=0;" edge="1" parent="1" source="LVbmIjUPnZdBbODbFYWp-15" target="LVbmIjUPnZdBbODbFYWp-40">
          <mxGeometry relative="1" as="geometry">
            <mxPoint x="752.5" y="660" as="targetPoint" />
          </mxGeometry>
        </mxCell>
        <mxCell id="LVbmIjUPnZdBbODbFYWp-12" style="rounded=0;orthogonalLoop=1;jettySize=auto;html=1;exitX=0.5;exitY=0.5;exitDx=0;exitDy=0;exitPerimeter=0;" edge="1" parent="1" source="LVbmIjUPnZdBbODbFYWp-15" target="LVbmIjUPnZdBbODbFYWp-42">
          <mxGeometry relative="1" as="geometry">
            <mxPoint x="812.5" y="690" as="targetPoint" />
          </mxGeometry>
        </mxCell>
        <mxCell id="LVbmIjUPnZdBbODbFYWp-15" value="Nhân viên" style="shape=umlActor;verticalLabelPosition=bottom;verticalAlign=top;html=1;outlineConnect=0;" vertex="1" parent="1">
          <mxGeometry x="592.5" y="750" width="30" height="60" as="geometry" />
        </mxCell>
        <mxCell id="LVbmIjUPnZdBbODbFYWp-17" style="rounded=0;orthogonalLoop=1;jettySize=auto;html=1;exitX=0.5;exitY=0.5;exitDx=0;exitDy=0;exitPerimeter=0;" edge="1" parent="1" source="LVbmIjUPnZdBbODbFYWp-22" target="LVbmIjUPnZdBbODbFYWp-38">
          <mxGeometry relative="1" as="geometry">
            <mxPoint x="2.4999999999997726" y="650" as="targetPoint" />
          </mxGeometry>
        </mxCell>
        <mxCell id="LVbmIjUPnZdBbODbFYWp-18" style="rounded=0;orthogonalLoop=1;jettySize=auto;html=1;exitX=0.5;exitY=0.5;exitDx=0;exitDy=0;exitPerimeter=0;" edge="1" parent="1" source="LVbmIjUPnZdBbODbFYWp-22" target="LVbmIjUPnZdBbODbFYWp-39">
          <mxGeometry relative="1" as="geometry">
            <mxPoint x="452.5" y="680" as="targetPoint" />
          </mxGeometry>
        </mxCell>
        <mxCell id="LVbmIjUPnZdBbODbFYWp-19" style="rounded=0;orthogonalLoop=1;jettySize=auto;html=1;exitX=0.5;exitY=0.5;exitDx=0;exitDy=0;exitPerimeter=0;" edge="1" parent="1" source="LVbmIjUPnZdBbODbFYWp-22" target="LVbmIjUPnZdBbODbFYWp-44">
          <mxGeometry relative="1" as="geometry">
            <mxPoint x="332.4999999999998" y="660" as="targetPoint" />
          </mxGeometry>
        </mxCell>
        <mxCell id="LVbmIjUPnZdBbODbFYWp-22" value="Quản lý" style="shape=umlActor;verticalLabelPosition=bottom;verticalAlign=top;html=1;outlineConnect=0;" vertex="1" parent="1">
          <mxGeometry x="295" y="750" width="30" height="60" as="geometry" />
        </mxCell>
        <mxCell id="LVbmIjUPnZdBbODbFYWp-23" value="Đặt lịch chăm sóc thú cưng" style="ellipse;whiteSpace=wrap;html=1;verticalAlign=middle;" vertex="1" parent="1">
          <mxGeometry x="90" y="190" width="134" height="80" as="geometry" />
        </mxCell>
        <mxCell id="LVbmIjUPnZdBbODbFYWp-24" value="Chọn gói dịch vụ" style="ellipse;whiteSpace=wrap;html=1;verticalAlign=middle;" vertex="1" parent="1">
          <mxGeometry x="87" y="350" width="140" height="70" as="geometry" />
        </mxCell>
        <mxCell id="LVbmIjUPnZdBbODbFYWp-25" value="&amp;lt;&amp;lt;include&amp;gt;&amp;gt;" style="html=1;verticalAlign=bottom;labelBackgroundColor=none;endArrow=open;endFill=0;dashed=1;rounded=0;exitX=0.5;exitY=1;exitDx=0;exitDy=0;entryX=0.5;entryY=0;entryDx=0;entryDy=0;" edge="1" parent="1" source="LVbmIjUPnZdBbODbFYWp-23" target="LVbmIjUPnZdBbODbFYWp-24">
          <mxGeometry width="160" relative="1" as="geometry">
            <mxPoint x="398" y="330" as="sourcePoint" />
            <mxPoint x="350" y="330.0000000000002" as="targetPoint" />
          </mxGeometry>
        </mxCell>
        <mxCell id="LVbmIjUPnZdBbODbFYWp-26" value="Theo dõi tiến độ" style="ellipse;whiteSpace=wrap;html=1;" vertex="1" parent="1">
          <mxGeometry x="750" y="190" width="120" height="80" as="geometry" />
        </mxCell>
        <mxCell id="LVbmIjUPnZdBbODbFYWp-27" value="Nhận thông báo" style="ellipse;whiteSpace=wrap;html=1;verticalAlign=middle;" vertex="1" parent="1">
          <mxGeometry x="580" y="190" width="120" height="80" as="geometry" />
        </mxCell>
        <mxCell id="LVbmIjUPnZdBbODbFYWp-35" value="&amp;lt;&amp;lt;include&amp;gt;&amp;gt;" style="html=1;verticalAlign=bottom;labelBackgroundColor=none;endArrow=open;endFill=0;dashed=1;rounded=0;exitX=0;exitY=0.5;exitDx=0;exitDy=0;entryX=1;entryY=0.5;entryDx=0;entryDy=0;" edge="1" parent="1" source="LVbmIjUPnZdBbODbFYWp-36" target="LVbmIjUPnZdBbODbFYWp-23">
          <mxGeometry width="160" relative="1" as="geometry">
            <mxPoint x="159.28999999999996" y="160" as="sourcePoint" />
            <mxPoint x="280" y="220" as="targetPoint" />
          </mxGeometry>
        </mxCell>
        <mxCell id="LVbmIjUPnZdBbODbFYWp-36" value="Phản hồi, đánh giá dịch vụ" style="ellipse;whiteSpace=wrap;html=1;" vertex="1" parent="1">
          <mxGeometry x="410" y="190" width="120" height="80" as="geometry" />
        </mxCell>
        <mxCell id="LVbmIjUPnZdBbODbFYWp-38" value="Quản lý dịch vụ" style="ellipse;whiteSpace=wrap;html=1;" vertex="1" parent="1">
          <mxGeometry x="74.99999999999977" y="580" width="120" height="80" as="geometry" />
        </mxCell>
        <mxCell id="LVbmIjUPnZdBbODbFYWp-39" value="Quản lý sản phẩm" style="ellipse;whiteSpace=wrap;html=1;" vertex="1" parent="1">
          <mxGeometry x="400" y="580" width="120" height="80" as="geometry" />
        </mxCell>
        <mxCell id="LVbmIjUPnZdBbODbFYWp-40" value="Nhận đơn chăm sóc thú cưng" style="ellipse;whiteSpace=wrap;html=1;" vertex="1" parent="1">
          <mxGeometry x="547.5" y="580" width="120" height="80" as="geometry" />
        </mxCell>
        <mxCell id="LVbmIjUPnZdBbODbFYWp-41" value="&amp;lt;&amp;lt;include&amp;gt;&amp;gt;" style="html=1;verticalAlign=bottom;labelBackgroundColor=none;endArrow=open;endFill=0;dashed=1;rounded=0;exitX=0;exitY=0;exitDx=0;exitDy=0;entryX=0.716;entryY=0.917;entryDx=0;entryDy=0;entryPerimeter=0;" edge="1" parent="1" source="LVbmIjUPnZdBbODbFYWp-40" target="LVbmIjUPnZdBbODbFYWp-23">
          <mxGeometry width="160" relative="1" as="geometry">
            <mxPoint x="622" y="422" as="sourcePoint" />
            <mxPoint x="364" y="278" as="targetPoint" />
          </mxGeometry>
        </mxCell>
        <mxCell id="LVbmIjUPnZdBbODbFYWp-42" value="Cập nhật tiến độ" style="ellipse;whiteSpace=wrap;html=1;" vertex="1" parent="1">
          <mxGeometry x="750" y="580" width="120" height="80" as="geometry" />
        </mxCell>
        <mxCell id="LVbmIjUPnZdBbODbFYWp-43" value="&amp;lt;&amp;lt;include&amp;gt;&amp;gt;" style="html=1;verticalAlign=bottom;labelBackgroundColor=none;endArrow=open;endFill=0;dashed=1;rounded=0;exitX=0;exitY=0.5;exitDx=0;exitDy=0;entryX=1;entryY=0.5;entryDx=0;entryDy=0;" edge="1" parent="1" source="LVbmIjUPnZdBbODbFYWp-42" target="LVbmIjUPnZdBbODbFYWp-40">
          <mxGeometry width="160" relative="1" as="geometry">
            <mxPoint x="774.5" y="432" as="sourcePoint" />
            <mxPoint x="516.5" y="288" as="targetPoint" />
          </mxGeometry>
        </mxCell>
        <mxCell id="LVbmIjUPnZdBbODbFYWp-44" value="Thêm các chương trình giảm giá" style="ellipse;whiteSpace=wrap;html=1;" vertex="1" parent="1">
          <mxGeometry x="249.99999999999977" y="580" width="120" height="80" as="geometry" />
        </mxCell>
        <mxCell id="LVbmIjUPnZdBbODbFYWp-45" value="&amp;lt;&amp;lt;extend&amp;gt;&amp;gt;" style="html=1;verticalAlign=bottom;labelBackgroundColor=none;endArrow=open;endFill=0;dashed=1;rounded=0;exitX=1;exitY=0.5;exitDx=0;exitDy=0;entryX=0;entryY=0.5;entryDx=0;entryDy=0;" edge="1" parent="1" source="LVbmIjUPnZdBbODbFYWp-38" target="LVbmIjUPnZdBbODbFYWp-44">
          <mxGeometry width="160" relative="1" as="geometry">
            <mxPoint x="150.5" y="490" as="sourcePoint" />
            <mxPoint x="232.5" y="460" as="targetPoint" />
          </mxGeometry>
        </mxCell>
        <mxCell id="LVbmIjUPnZdBbODbFYWp-48" value="&amp;lt;&amp;lt;include&amp;gt;&amp;gt;" style="html=1;verticalAlign=bottom;labelBackgroundColor=none;endArrow=open;endFill=0;dashed=1;rounded=0;exitX=0.5;exitY=1;exitDx=0;exitDy=0;entryX=1;entryY=0;entryDx=0;entryDy=0;" edge="1" parent="1" source="LVbmIjUPnZdBbODbFYWp-27" target="LVbmIjUPnZdBbODbFYWp-44">
          <mxGeometry width="160" relative="1" as="geometry">
            <mxPoint x="575" y="612" as="sourcePoint" />
            <mxPoint x="196" y="273" as="targetPoint" />
          </mxGeometry>
        </mxCell>
        <mxCell id="LVbmIjUPnZdBbODbFYWp-49" value="&amp;lt;&amp;lt;include&amp;gt;&amp;gt;" style="html=1;verticalAlign=bottom;labelBackgroundColor=none;endArrow=open;endFill=0;dashed=1;rounded=0;exitX=0.5;exitY=1;exitDx=0;exitDy=0;entryX=0.5;entryY=0;entryDx=0;entryDy=0;" edge="1" parent="1" source="LVbmIjUPnZdBbODbFYWp-26" target="LVbmIjUPnZdBbODbFYWp-42">
          <mxGeometry width="160" relative="1" as="geometry">
            <mxPoint x="750" y="400" as="sourcePoint" />
            <mxPoint x="670" y="480" as="targetPoint" />
          </mxGeometry>
        </mxCell>
        <mxCell id="LVbmIjUPnZdBbODbFYWp-51" value="" style="rounded=0;whiteSpace=wrap;html=1;fillColor=none;" vertex="1" parent="1">
          <mxGeometry x="70" y="170" width="820" height="530" as="geometry" />
        </mxCell>
        <mxCell id="LVbmIjUPnZdBbODbFYWp-55" value="&lt;font size=&quot;5&quot;&gt;Hệ thống dịch vụ&lt;/font&gt;" style="text;html=1;align=center;verticalAlign=middle;whiteSpace=wrap;rounded=0;" vertex="1" parent="1">
          <mxGeometry x="110" y="450" width="195" height="70" as="geometry" />
        </mxCell>
      </root>
    </mxGraphModel>
  </diagram>
</mxfile>
